<?xml version="1.0" encoding="UTF-8" standalone="no"?>
<!DOCTYPE svg PUBLIC "-//W3C//DTD SVG 1.1//EN" "http://www.w3.org/Graphics/SVG/1.1/DTD/svg11.dtd">
<svg width="100%" height="100%" viewBox="0 0 2076 900" version="1.1" xmlns="http://www.w3.org/2000/svg" xmlns:xlink="http://www.w3.org/1999/xlink" xml:space="preserve" xmlns:serif="http://www.serif.com/" style="fill-rule:evenodd;clip-rule:evenodd;stroke-linejoin:round;stroke-miterlimit:2;">
    <g id="Artboard1" transform="matrix(1,0,0,1,-5,-546)">
        <rect x="5" y="546" width="2076" height="900" style="fill:none;"/>
        <g id="Background" transform="matrix(2,0,0,2,0,0)">
            <path d="M302.421,474.314L303.571,475.298C301.855,480.922 303.34,509.044 302.86,511.495C302.546,513.103 303.856,513.301 302.811,514.5C302.089,515.328 301.693,514.752 301.073,515.632C300.707,516.153 301.704,516.073 301.377,516.537C300.351,513.926 296.063,497.697 278.508,495.433C269.812,494.311 260.291,499.701 255.818,506.709C233.465,541.731 284.854,576.692 301.395,532.472C301.774,532.951 302.532,533.021 302.912,533.5C303.385,534.095 302.596,534.71 302.9,537.524C303.24,540.676 302.019,568.759 303.514,573.535L302.436,574.637C296.213,577.235 272.873,589.075 246.826,572.019C204.979,544.615 219.161,463.231 282.468,467.939C287.952,468.347 291.719,469.71 302.421,474.314Z" style="fill:rgb(43,97,170);"/>
            <path d="M140.438,468.56C160.507,468.894 160.431,468.578 180.508,468.7C216.674,468.742 225.916,468.759 228.094,468.586C228.705,499.133 200.583,549.402 142.538,539.27C140.236,537.631 140.212,537.684 140.052,537.5C139.952,537.385 139.869,498.651 139.994,493.424C139.98,491.757 139.591,471.959 140.438,468.56Z" style="fill:rgb(45,104,176);"/>
            <path d="M344.501,580.1C343.218,579.949 341.329,580.585 341.32,577.502C341.282,565.1 340.887,434.615 341.388,422.482C341.461,420.71 342.413,420.769 367.498,420.797C370.761,420.8 369.964,423.439 369.958,426.507C369.699,566.518 370.945,566.467 369.885,578.587C369.713,580.552 366.499,580.069 344.501,580.1Z" style="fill:rgb(85,143,195);"/>
            <path d="M156.547,392.176C205.717,395.59 228.507,434.28 228.094,468.586C225.916,468.759 216.174,468.742 180.008,468.7C176.773,463.226 181.576,444.528 154.442,438.943C155.065,437.991 155.384,438.399 155.973,437.5C156.016,437.433 156.037,437.401 156.037,436.507C156.034,433.471 155.946,433.559 155.93,430.49C155.736,393.087 156.471,393.145 156.547,392.176Z" style="fill:rgb(252,198,7);"/>
            <path d="M486.484,476.573C507.459,460.049 537.262,467.744 547.252,491.609C549.29,496.477 551.167,500.96 550.421,557.497C550.168,576.703 551.141,579.893 548.453,580.046C546.534,580.155 534.065,580.866 524.426,579.97C521.356,579.685 522.199,576.359 522.19,555.499C522.167,502.09 523.652,497.425 512.493,495.55C504.943,494.281 500.666,502.117 500.35,502.476C495.76,494.253 499.595,490.865 487.737,478.196C487.625,478.077 487.683,478.076 486.484,476.573Z" style="fill:rgb(252,199,9);"/>
            <path d="M449.595,469.007C463.121,468.115 467.885,464.631 486.484,476.573C487.683,478.076 487.625,478.077 487.737,478.196C499.595,490.865 495.76,494.253 500.35,502.476C499.282,518.156 500.781,578.321 499.536,579.534C498.585,580.461 473.22,580.38 472.437,579.566C471.282,578.368 472.097,527.107 471.849,510.486C471.571,491.812 458.61,491.904 451.642,500.582C451.357,500.12 449.821,500.441 449.742,497.501C449.358,483.234 449.884,483.293 449.595,469.007Z" style="fill:rgb(227,45,36);"/>
            <path d="M91.803,501.487C100.007,511.527 107.007,524.246 127.618,534.261C131.075,535.941 137.932,538.088 140.353,539.352C139.579,543.702 140.211,559.504 140.069,574.499C139.909,591.403 140.956,593.247 137.495,593.325C133.873,593.408 93.837,594.316 92.212,592.809C90.925,591.614 91.58,505.567 91.803,501.487Z" style="fill:rgb(232,44,43);"/>
            <path d="M393.499,580.079C390.562,580.071 382.612,580.823 382.012,578.669C381.731,577.66 381.917,549.041 381.876,481.495C381.874,477.25 381.124,468.825 383.524,468.626C385.435,468.468 385.428,468.657 407.5,468.592C410.918,468.582 410.083,471.113 410.134,488.509C410.155,495.703 410.393,575.947 410.063,578.443C409.761,580.725 403.303,580.074 393.499,580.079Z" style="fill:rgb(231,45,43);"/>
            <path d="M139.778,393.125C135.976,396.104 118.013,399.783 119.703,418.482C121.082,433.748 136.536,437.793 138.5,437.466C139.049,437.374 139.389,436.708 139.939,436.616C140.172,437.285 140.405,437.955 140.638,438.624C139.987,441.537 139.968,441.516 140.166,467.595C137.72,468.655 137.754,468.739 137.524,468.74C101.321,468.849 94.73,468.952 91.236,468.228C91.782,464.889 91.368,447.361 91.493,395.5C91.499,392.781 91.789,392.316 94.496,392.301C136.341,392.075 136.597,391.39 139.778,393.125Z" style="fill:rgb(232,45,43);"/>
            <path d="M808.524,486.477C807.185,487.778 805.252,489.654 788.339,498.175C785.458,499.627 785.409,499.351 784.448,499.737L783.406,499.592C780.782,497.937 761.775,485.948 744.857,503.81C739.053,509.938 737.669,522.758 737.481,524.505C735.61,527.252 734.648,527.086 725.82,531.93C721.236,527.635 719.288,521.098 710.22,517.509C710.12,516.94 710.02,516.371 709.92,515.802C712.805,503.832 716.986,489.795 733.171,478.082C735.991,476.041 752.193,464.315 775.546,468.191C796.367,471.646 805.911,483.811 808.524,486.477Z" style="fill:rgb(233,47,43);"/>
            <path d="M140.166,467.595L140.438,468.56C139.591,471.959 139.98,491.757 139.994,493.424C139.869,498.651 139.952,537.385 140.052,537.5C140.212,537.684 140.236,537.631 142.538,539.27C141.81,539.297 141.082,539.325 140.353,539.352C137.932,538.088 131.075,535.941 127.618,534.261C107.007,524.246 100.007,511.527 91.803,501.487C91.44,497.773 91.047,497.949 89.427,494.531C90.357,493.65 90.722,494.383 91.654,493.5C91.713,493.445 91.562,493.434 91.572,492.499C91.592,490.739 91.818,470.937 91.499,470.5C90.963,469.763 90.049,469.359 89.513,468.622C90.088,468.491 90.662,468.36 91.236,468.228C94.73,468.952 101.321,468.849 137.524,468.74C137.754,468.739 137.72,468.655 140.166,467.595Z" style="fill:rgb(14,42,96);"/>
            <path d="M655.471,489.478C655.654,489.094 661.249,472.22 681.46,468.245C701.663,464.273 721.138,476.382 720.131,479.385C719.575,481.045 719.347,480.869 706.433,496.446C702.805,500.822 698.442,489.999 686.47,493.412C680.23,495.191 679.66,504.242 685.686,507.125C686.136,507.341 686.108,507.314 691.388,509.671C691.371,509.902 691.836,509.985 691.819,510.216C691.728,511.452 691.197,511.266 691.189,512.493C691.045,532.492 691.322,536.575 691.464,538.665C675.408,532.463 673.568,532.122 666.568,528.077C664.744,525.979 664.958,525.831 662.532,524.382C660.6,522.288 647.559,508.148 655.471,489.478Z" style="fill:rgb(232,47,39);"/>
            <path d="M631.456,524.111L632.513,524.106C656.043,524.183 655.949,524.143 662.532,524.382C664.958,525.831 664.744,525.979 666.568,528.077C666.422,528.224 665.427,527.868 665.226,529.431C665.019,531.035 663.169,563.216 628.347,576.068C615.864,580.676 600.782,577.394 598.444,576.885C598.311,576.856 598.329,576.937 596.893,577.588C596.374,577.018 595.855,576.448 595.336,575.879C598.64,570.383 596.539,569.909 596.917,543.45C604.203,545.376 604.063,546.849 611.516,545.61C628.208,542.836 630.203,529.147 631.456,524.111Z" style="fill:rgb(42,97,171);"/>
            <path d="M691.388,509.671C703.737,513.701 708.417,516.439 709.474,516.473C709.742,516.482 709.651,515.794 709.92,515.802C710.02,516.371 710.12,516.94 710.22,517.509C719.288,521.098 721.236,527.635 725.82,531.93L725.309,532.284C718.087,536.016 711.545,538.797 711.836,540.477C713.42,549.615 723.204,561.823 724.518,563.462C723.781,564.353 711.868,587.22 676.481,579.585C669.897,578.164 652.662,570.096 656.958,564.82C670.61,548.061 671.415,548.237 672.368,548.815C674.115,549.874 682.429,558.114 694.528,554.585C699.341,553.181 699.849,549.196 699.931,548.554C700.833,541.481 693.063,539.421 691.464,538.665C691.322,536.575 691.045,532.492 691.189,512.493C691.197,511.266 691.728,511.452 691.819,510.216C691.836,509.985 691.371,509.902 691.388,509.671Z" style="fill:rgb(249,193,10);"/>
            <path d="M301.377,516.537C303.196,523.393 302.765,527.12 301.395,532.472C284.854,576.692 233.465,541.731 255.818,506.709C260.291,499.701 269.812,494.311 278.508,495.433C296.063,497.697 300.351,513.926 301.377,516.537Z" style="fill:rgb(251,199,10);"/>
            <path d="M612.521,468.104C643.909,468.799 652.588,489.394 654.624,489.872C654.927,489.943 655.168,489.407 655.471,489.478C647.559,508.148 660.6,522.288 662.532,524.382C655.949,524.143 656.043,524.183 632.513,524.106C630.331,521.901 631.098,521.573 630.301,518.548C624.808,497.699 608.173,501.352 597.864,500.907C597.092,499.229 596.844,499.329 596.842,497.499C596.814,473.472 596.47,473.36 597.735,470.071C609.874,467.623 609.876,468.219 612.521,468.104Z" style="fill:rgb(245,186,13);"/>
            <path d="M564.129,551.555C565.667,552.755 565.83,552.487 566.966,554.142C578.081,570.322 591.635,574.229 595.336,575.879C595.855,576.448 596.374,577.018 596.893,577.588C596.6,629.669 597.981,631.853 594.532,631.909C565.593,632.385 564.605,632.768 563.869,630.425C563.805,630.218 563.829,554.262 563.902,553.513C563.917,553.356 563.919,553.368 564.129,551.555Z" style="fill:rgb(232,45,43);"/>
            <path d="M747.959,547.304C750.465,549.209 769.13,563.395 787.252,545.227C790.313,542.159 790.657,540.263 794.196,542.916C807.302,552.741 807.326,552.69 808.441,553.573C811.662,556.124 813.128,556.837 810.149,560.206C802.865,568.44 787.772,584.778 755.561,580.097C739.623,577.781 726.562,565.4 724.518,563.462C725.663,560.69 724.679,559.991 728.682,556.895C740.803,550.17 742.03,548.875 747.959,547.304Z" style="fill:rgb(232,47,44);"/>
            <path d="M852.698,537.998C863.022,538.505 879.159,538.032 884.65,538.463C885.026,540.678 887.572,555.639 880.05,566.171C858.956,595.705 809.164,573.459 813.808,565.671C813.975,565.39 826.569,550.339 827.456,549.45C829.858,547.037 830.133,549.044 832.861,551.034C848.816,562.67 868.732,549.03 850.668,539.014C851.168,538.825 851.104,538.829 852.698,537.998Z" style="fill:rgb(252,199,8);"/>
            <path d="M421.667,509.486C435.731,509.925 435.654,509.771 449.756,509.552C449.816,527.842 449.812,577.044 449.721,578.545C449.631,580.024 444.93,580.091 444.494,580.097C424.039,580.388 423.955,580.469 422.372,579.677C421.334,579.157 421.726,575.135 421.667,509.486Z" style="fill:rgb(43,97,170);"/>
            <path d="M303.571,475.298C326.813,490.522 326.016,506.749 329.196,511.5C329.484,511.931 330.096,512.073 330.385,512.505C330.595,524.512 330.515,524.444 330.453,536.499C328.775,538.354 328.678,538.287 328.642,538.5C328.585,538.849 328.803,539.227 328.683,539.559C319.237,565.788 303.795,573.338 303.514,573.535C302.019,568.759 303.24,540.676 302.9,537.524C302.596,534.71 303.385,534.095 302.912,533.5C302.532,533.021 301.774,532.951 301.395,532.472C302.765,527.12 303.196,523.393 301.377,516.537C301.704,516.073 300.707,516.153 301.073,515.632C301.693,514.752 302.089,515.328 302.811,514.5C303.856,513.301 302.546,513.103 302.86,511.495C303.34,509.044 301.855,480.922 303.571,475.298Z" style="fill:rgb(16,42,96);"/>
            <path d="M812.436,491.555C817.584,480.328 824.12,465.978 853.455,467.909C862.989,468.537 879.697,476.4 877.225,480.348C877.126,480.505 864.206,496.476 863.286,497.214C860.965,499.074 852.019,489.28 842.759,493.989C839.692,495.549 836.005,502.897 843.733,507.145C844.045,507.316 845.85,508.308 847.499,509.512C843.992,509.563 844.114,510.062 840.519,509.961C820.295,509.39 820.187,510.961 818.601,510.212C818.076,509.964 817.79,509.341 817.264,509.093C819.969,507.5 821.199,505.96 813.705,493.372L812.436,491.555Z" style="fill:rgb(251,199,11);"/>
            <path d="M896.386,493.621C899.586,492.916 911.038,493.229 920.501,493.163C922.491,493.149 922.486,493.137 924.115,494.363C924.014,498.927 922.979,545.338 924.691,551.43C918.371,550.388 918.338,551.385 900.481,550.923C898.786,550.879 898.324,550.767 898.233,552.5C898.222,552.696 898.125,552.646 896.774,554.476C896.122,527.453 897.085,499.585 896.386,493.621Z" style="fill:rgb(232,46,43);"/>
            <path d="M596.599,469.362C591.273,474.237 578.647,478.85 584.351,492.562C586.946,498.799 591.87,497.971 596.889,502.558C596.841,512.99 596.793,512.902 596.908,523.277L595.563,524.099C573.925,524.114 566.058,524.121 563.62,523.594C564.554,513.371 562.726,470.193 564.707,468.858C564.785,468.805 591.604,467.703 596.599,469.362Z" style="fill:rgb(231,46,44);"/>
            <path d="M563.62,523.594C566.058,524.121 573.925,524.114 595.563,524.099C598.699,527.069 596.683,527.855 596.917,543.45C596.539,569.909 598.64,570.383 595.336,575.879C591.635,574.229 578.081,570.322 566.966,554.142C565.83,552.487 565.667,552.755 564.129,551.555C563.797,548.862 563.697,548.982 562.687,546.419C562.99,546.01 563.603,545.909 563.906,545.5C564.068,545.282 563.732,531.191 563.842,526.516C563.886,524.655 562.424,524.101 562.397,524.055L563.62,523.594Z" style="fill:rgb(14,42,96);"/>
            <path d="M783.406,499.592L784.448,499.737C791.46,505.714 795.624,515.091 795.607,520.791C791.808,522.808 759.427,539.999 748.321,546.392C738.208,542.549 737.305,528.697 737.908,525.075C740.955,524.175 776.992,503.762 781.602,501.686C782.977,501.067 783.161,501.125 783.406,499.592Z" style="fill:rgb(55,123,188);"/>
            <path d="M924.139,467.649C923.078,467.808 923.571,468.638 922.504,468.798C922.028,468.87 922.055,468.807 916.495,468.796C906.149,468.776 899.107,468.945 896.307,468.275C897.107,463.383 896.195,423.081 896.872,421.692C897.659,420.075 922.781,420.571 923.582,421.432C924.67,422.603 923.577,454.245 924.139,467.649Z" style="fill:rgb(230,46,43);"/>
            <path d="M378.933,437.501C381.332,416.141 404.714,417.41 411.044,429.739C423.156,453.332 381.399,468.472 378.933,437.501Z" style="fill:rgb(44,100,172);"/>
            <path d="M449.595,469.007C449.884,483.293 449.358,483.234 449.742,497.501C449.821,500.441 451.357,500.12 451.642,500.582C449.857,504.847 450.273,504.886 449.756,509.552C435.654,509.771 435.731,509.925 421.667,509.486C421.716,506.494 421.766,503.501 421.816,500.509C422.689,498.942 423.103,499.249 423.492,497.5C428.109,476.707 448.183,469.706 449.595,469.007Z" style="fill:rgb(137,20,27);"/>
            <path d="M817.264,509.093C817.79,509.341 818.076,509.964 818.601,510.212C820.187,510.961 820.295,509.39 840.519,509.961C844.114,510.062 843.992,509.563 847.499,509.512C850.161,510.212 850.092,510.122 852.678,511.191C852.558,511.831 851.62,512.107 851.5,512.747C851.459,512.966 851.904,512.829 851.916,515.505C851.997,532.779 852.581,532.72 852.23,535.34C852.057,536.629 851.711,536.4 851.729,536.5C851.891,537.423 852.532,537.058 852.698,537.998C851.104,538.829 851.168,538.825 850.668,539.014C848.881,538.464 849.004,538.43 847.302,537.892C841.149,535.738 841.179,535.803 836.648,534.107C813.253,525.353 817.751,517.436 811.47,512.365C813.114,511.596 813.046,511.637 814.558,510.642L817.264,509.093Z" style="fill:rgb(82,139,188);"/>
            <path d="M156.547,392.176C156.471,393.145 155.736,393.087 155.93,430.49C155.946,433.559 156.034,433.471 156.037,436.507C156.037,437.401 156.016,437.433 155.973,437.5C155.384,438.399 155.065,437.991 154.442,438.943C146.004,438.683 146.069,438.598 140.638,438.624C140.405,437.955 140.172,437.285 139.939,436.616C139.931,434.911 139.895,433.207 139.887,431.503C139.736,396.906 139.771,396.816 140.862,394.022C148.578,391.911 148.601,392.386 156.547,392.176Z" style="fill:rgb(221,135,24);"/>
            <path d="M924.139,467.649C924.485,467.913 923.999,468.535 925.466,468.661C925.808,468.69 926.154,468.644 926.497,468.673C923.205,470.907 923.93,471.522 923.946,475.472C923.965,480.034 924.031,479.969 924.054,484.494C924.079,489.375 922.732,490.128 926.491,493.206C924.587,493.407 924.56,493.315 924.435,493.423C924.021,493.78 924.557,493.981 924.115,494.363C922.486,493.137 922.491,493.149 920.501,493.163C911.038,493.229 899.586,492.916 896.386,493.621C895.762,493.493 895.139,493.365 894.515,493.237C896.665,491.337 896.695,490.771 896.71,490.49C896.749,489.772 896.665,489.875 896.652,481.501C896.64,474.49 899.729,473.312 894.511,468.656C895.11,468.529 895.708,468.402 896.307,468.275C899.107,468.945 906.149,468.776 916.495,468.796C922.055,468.807 922.028,468.87 922.504,468.798C923.571,468.638 923.078,467.808 924.139,467.649Z" style="fill:rgb(18,42,94);"/>
            <path d="M139.778,393.125L140.862,394.022C139.771,396.816 139.736,396.906 139.887,431.503C139.895,433.207 139.931,434.911 139.939,436.616C139.389,436.708 139.049,437.374 138.5,437.466C136.536,437.793 121.082,433.748 119.703,418.482C118.013,399.783 135.976,396.104 139.778,393.125Z" style="fill:rgb(159,23,24);"/>
            <path d="M924.691,551.43L925.71,552.26C925.404,552.723 924.413,552.206 924.178,554.585C923.801,558.399 924.226,576.261 923.993,577.524C923.689,579.174 924.319,578.942 925.5,580.118C918.868,579.675 918.75,580.58 912.605,578.216C897.138,572.264 897.08,556.175 896.774,554.476C898.125,552.646 898.222,552.696 898.233,552.5C898.324,550.767 898.786,550.879 900.481,550.923C918.338,551.385 918.371,550.388 924.691,551.43Z" style="fill:rgb(224,137,27);"/>
            <path d="M596.908,523.277C597.841,524.237 598.033,524.067 631.456,524.111C630.203,529.147 628.208,542.836 611.516,545.61C604.063,546.849 604.203,545.376 596.917,543.45C596.683,527.855 598.699,527.069 595.563,524.099L596.908,523.277Z" style="fill:rgb(56,131,198);"/>
            <path d="M852.678,511.191C870.805,517.831 879.69,522.029 884.65,538.463C879.159,538.032 863.022,538.505 852.698,537.998C852.532,537.058 851.891,537.423 851.729,536.5C851.711,536.4 852.057,536.629 852.23,535.34C852.581,532.72 851.997,532.779 851.916,515.505C851.904,512.829 851.459,512.966 851.5,512.747C851.62,512.107 852.558,511.831 852.678,511.191Z" style="fill:rgb(98,143,145);"/>
            <path d="M330.453,536.499C330.987,568.278 330.901,579.342 329.665,579.815C328.966,580.082 328.196,580.114 309.508,580.073C309.02,580.072 303.911,580.061 303.42,579.592C303.128,579.313 303.576,579.217 302.436,574.637L303.514,573.535C303.795,573.338 319.237,565.788 328.683,539.559C328.803,539.227 328.585,538.849 328.642,538.5C328.678,538.287 328.775,538.354 330.453,536.499Z" style="fill:rgb(226,46,46);"/>
            <path d="M302.421,474.314C303.045,471.978 301.917,471.837 302.98,469.657C303.875,467.82 304.442,468.084 328.493,468.611C331.08,468.667 330.634,470.141 330.613,505.501C330.612,506.061 330.596,506.02 330.385,512.505C330.096,512.073 329.484,511.931 329.196,511.5C326.016,506.749 326.813,490.522 303.571,475.298L302.421,474.314Z" style="fill:rgb(226,47,47);"/>
            <path d="M808.524,486.477C810.644,488.963 810.56,488.923 812.436,491.555L813.705,493.372C813.395,493.9 812.564,493.972 812.254,494.5C812.093,494.773 813.265,494.862 812.064,498.453C811.504,500.125 811.086,509.088 812.5,509.922C812.65,510.011 812.652,509.975 814.558,510.642C813.046,511.637 813.114,511.596 811.47,512.365C810.2,513.038 810.277,513.017 795.607,520.791C795.624,515.091 791.46,505.714 784.448,499.737C785.409,499.351 785.458,499.627 788.339,498.175C805.252,489.654 807.185,487.778 808.524,486.477Z" style="fill:rgb(41,69,135);"/>
            <path d="M925.71,552.26C932.342,556.444 936.99,553.767 939.422,554.688C941.132,555.335 940.818,555.923 940.669,577.512C940.643,581.159 934.467,580.128 925.5,580.118C924.319,578.942 923.689,579.174 923.993,577.524C924.226,576.261 923.801,558.399 924.178,554.585C924.413,552.206 925.404,552.723 925.71,552.26Z" style="fill:rgb(251,198,13);"/>
            <path d="M926.497,468.673C932.944,468.657 940.274,467.787 940.629,470.484C940.646,470.617 940.675,488.9 940.678,490.502C940.684,494.329 935.666,493.245 926.491,493.206C922.732,490.128 924.079,489.375 924.054,484.494C924.031,479.969 923.965,480.034 923.946,475.472C923.93,471.522 923.205,470.907 926.497,468.673Z" style="fill:rgb(45,99,169);"/>
            <path d="M737.481,524.505L737.908,525.075C737.305,528.697 738.208,542.549 748.321,546.392L747.959,547.304C742.03,548.875 740.803,550.17 728.682,556.895C728.455,556.35 727.82,556.044 727.593,555.5C727.512,555.306 728.21,552.267 728.228,549.49C728.307,536.907 725.552,535.726 725.309,532.284L725.82,531.93C734.648,527.086 735.61,527.252 737.481,524.505Z" style="fill:rgb(20,43,100);"/>
            <path d="M894.511,468.656C899.729,473.312 896.64,474.49 896.652,481.501C896.665,489.875 896.749,489.772 896.71,490.49C896.695,490.771 896.665,491.337 894.515,493.237C890.239,493.253 882.305,494.028 882.179,491.553C881.729,482.738 882.085,472.145 882.142,470.459C882.229,467.862 889.087,468.654 894.511,468.656Z" style="fill:rgb(43,96,169);"/>
            <path d="M596.599,469.362L597.735,470.071C596.47,473.36 596.814,473.472 596.842,497.499C596.844,499.329 597.092,499.229 597.864,500.907C597.539,501.457 597.214,502.008 596.889,502.558C591.87,497.971 586.946,498.799 584.351,492.562C578.647,478.85 591.273,474.237 596.599,469.362Z" style="fill:rgb(163,23,24);"/>
            <path d="M725.309,532.284C725.552,535.726 728.307,536.907 728.228,549.49C728.21,552.267 727.512,555.306 727.593,555.5C727.82,556.044 728.455,556.35 728.682,556.895C724.679,559.991 725.663,560.69 724.518,563.462C723.204,561.823 713.42,549.615 711.836,540.477C711.545,538.797 718.087,536.016 725.309,532.284Z" style="fill:rgb(52,88,31);"/>
            <path d="M449.595,469.007C448.183,469.706 428.109,476.707 423.492,497.5C423.103,499.249 422.689,498.942 421.816,500.509C421.714,495.156 421.474,470.498 421.82,469.634C422.57,467.762 444.93,468.67 449.595,469.007Z" style="fill:rgb(49,97,161);"/>
            <path d="M89.513,468.622C90.049,469.359 90.963,469.763 91.499,470.5C91.818,470.937 91.592,490.739 91.572,492.499C91.562,493.434 91.713,493.445 91.654,493.5C90.722,494.383 90.357,493.65 89.427,494.531C86.823,488.069 86.392,488.26 84.987,481.403C84.796,480.469 82.881,471.128 83.632,469.561C84.514,467.721 85.124,468.741 89.513,468.622Z" style="fill:rgb(44,96,162);"/>
            <path d="M562.397,524.055C562.424,524.101 563.886,524.655 563.842,526.516C563.732,531.191 564.068,545.282 563.906,545.5C563.603,545.909 562.99,546.01 562.687,546.419C561.952,544.846 556.445,533.058 557.146,525.433C557.265,524.138 561.963,524.062 562.397,524.055Z" style="fill:rgb(44,97,162);"/>
            <path d="M813.705,493.372C821.199,505.96 819.969,507.5 817.264,509.093L814.558,510.642C812.652,509.975 812.65,510.011 812.5,509.922C811.086,509.088 811.504,500.125 812.064,498.453C813.265,494.862 812.093,494.773 812.254,494.5C812.564,493.972 813.395,493.9 813.705,493.372Z" style="fill:rgb(36,68,42);"/>
            <g transform="matrix(0.493827,0,0,0.420091,1.728395,74.874405)">
                <path d="M361,937L281,937L280,1012C280,1012 358.231,1018.069 361,937Z" style="fill:rgb(85,143,195);"/>
            </g>
        </g>
    </g>
</svg>
